<?xml version="1.0" encoding="UTF-8" standalone="no"?>
<!-- Created with Inkscape (http://www.inkscape.org/) -->

<svg
   width="160.77776mm"
   height="57.402664mm"
   viewBox="0 0 160.77776 57.402664"
   version="1.1"
   id="svg5"
   inkscape:version="1.2.2 (b0a8486541, 2022-12-01)"
   sodipodi:docname="fake-company-2.svg"
   xmlns:inkscape="http://www.inkscape.org/namespaces/inkscape"
   xmlns:sodipodi="http://sodipodi.sourceforge.net/DTD/sodipodi-0.dtd"
   xmlns="http://www.w3.org/2000/svg"
   xmlns:svg="http://www.w3.org/2000/svg">
  <sodipodi:namedview
     id="namedview7"
     pagecolor="#ffffff"
     bordercolor="#000000"
     borderopacity="0.25"
     inkscape:showpageshadow="2"
     inkscape:pageopacity="0.0"
     inkscape:pagecheckerboard="0"
     inkscape:deskcolor="#d1d1d1"
     inkscape:document-units="mm"
     showgrid="false"
     inkscape:zoom="0.49798681"
     inkscape:cx="307.23705"
     inkscape:cy="106.42852"
     inkscape:window-width="1366"
     inkscape:window-height="703"
     inkscape:window-x="0"
     inkscape:window-y="0"
     inkscape:window-maximized="1"
     inkscape:current-layer="layer1" />
  <defs
     id="defs2" />
  <g
     inkscape:label="Layer 1"
     inkscape:groupmode="layer"
     id="layer1"
     transform="translate(-27.320844,-120.37143)">
    <g
       aria-label="LANKA"
       id="text236"
       style="font-size:26.8223px;fill:#922fdd;stroke-width:2.23519"
       transform="translate(3.7191413,9.7876859)" />
    <g
       id="g3269"
       transform="translate(-1.1441434,-1.328269)">
      <path
         d="m 47.562338,150.22914 v -19.15112 h 2.414007 v 17.00534 h 8.368558 v 2.14578 z"
         id="path3237"
         style="font-size:26.8223px;fill:#922fdd;stroke-width:2.23519"
         transform="translate(3.7191412,0.53130635)" />
      <path
         d="M 73.633618,150.22914 71.3269,144.30141 h -7.59071 l -2.279896,5.92773 h -2.440829 l 7.483421,-19.23159 h 2.172607 l 7.456599,19.23159 z m -5.176704,-13.86713 q -0.08047,-0.21458 -0.268223,-0.77784 -0.187756,-0.56327 -0.375512,-1.15336 -0.160934,-0.61692 -0.268223,-0.93878 -0.187756,0.83149 -0.429157,1.63616 -0.2414,0.77784 -0.402334,1.23382 l -2.172606,5.79362 h 6.061839 z"
         id="path3239"
         style="font-size:26.8223px;fill:#922fdd;stroke-width:2.23519"
         transform="translate(3.7191412,0.53130635)" />
      <path
         d="M 93.938098,150.22914 H 91.121756 L 80.875638,134.32352 h -0.107289 q 0.05364,0.93878 0.134111,2.33354 0.08047,1.39476 0.08047,2.86998 v 10.7021 h -2.226251 v -19.15112 h 2.789519 L 91.765492,146.93 h 0.107289 q -0.02682,-0.42916 -0.08047,-1.28747 -0.02682,-0.85832 -0.08047,-1.87756 -0.02682,-1.01925 -0.02682,-1.87756 v -10.80939 h 2.253073 z"
         id="path3241"
         style="font-size:26.8223px;fill:#922fdd;stroke-width:2.23519"
         transform="translate(3.7191412,0.53130635)" />
      <path
         d="m 113.14287,150.22914 h -2.84316 l -6.78604,-9.1464 -1.95803,1.71662 v 7.42978 h -2.41401 v -19.15112 h 2.41401 v 9.44145 q 0.80467,-0.91196 1.63616,-1.82392 0.83149,-0.91196 1.66298,-1.82391 l 5.1767,-5.79362 h 2.81635 l -7.59072,8.34173 z"
         id="path3243"
         style="font-size:26.8223px;fill:#922fdd;stroke-width:2.23519"
         transform="translate(3.7191412,0.53130635)" />
      <path
         d="m 127.76101,150.22914 -2.30672,-5.92773 h -7.59071 l -2.27989,5.92773 h -2.44083 l 7.48342,-19.23159 h 2.1726 l 7.4566,19.23159 z m -5.1767,-13.86713 q -0.0805,-0.21458 -0.26823,-0.77784 -0.18775,-0.56327 -0.37551,-1.15336 -0.16093,-0.61692 -0.26822,-0.93878 -0.18776,0.83149 -0.42916,1.63616 -0.2414,0.77784 -0.40233,1.23382 l -2.17261,5.79362 h 6.06184 z"
         id="path3245"
         style="font-size:26.8223px;fill:#922fdd;stroke-width:2.23519"
         transform="translate(3.7191412,0.53130635)" />
      <g
         aria-label="AIR"
         id="text236-3"
         style="font-size:26.0813px;fill:#dd2f53;stroke-width:2.17343"
         transform="translate(3.7191413,0.5313059)">
        <path
           d="m 135.58254,168.7419 -2.24299,-5.76397 h -7.38101 l -2.21691,5.76397 h -2.3734 l 7.27669,-18.7003 h 2.11258 l 7.2506,18.7003 z m -5.03369,-13.48403 q -0.0782,-0.20866 -0.26081,-0.75636 -0.18257,-0.54771 -0.36514,-1.1215 -0.15649,-0.59987 -0.26081,-0.91284 -0.18257,0.80852 -0.4173,1.59096 -0.23474,0.75635 -0.39122,1.19974 l -2.11259,5.63356 h 5.89437 z"
           id="path3248" />
        <path
           d="m 145.80641,168.7419 h -6.72898 v -1.35623 l 2.19083,-0.49554 V 151.9977 l -2.19083,-0.52162 v -1.35623 h 6.72898 v 1.35623 l -2.19083,0.52162 v 14.89243 l 2.19083,0.49554 z"
           id="path3250" />
        <path
           d="m 154.54366,150.11985 q 3.46882,0 5.11194,1.33015 1.6692,1.30406 1.6692,3.96435 0,1.48664 -0.54771,2.47773 -0.5477,0.99109 -1.40839,1.59096 -0.8346,0.57378 -1.77352,0.91284 l 5.11193,8.34602 h -2.73854 l -4.51206,-7.69399 h -3.70355 v 7.69399 h -2.34731 v -18.62205 z m -0.1304,2.03434 h -2.6603 v 6.91155 h 2.7907 q 2.26908,0 3.31233,-0.88677 1.04325,-0.91284 1.04325,-2.66029 0,-1.82569 -1.09541,-2.58205 -1.09542,-0.78244 -3.39057,-0.78244 z"
           id="path3252" />
      </g>
    </g>
    <path
       style="fill:#dd2f53;fill-opacity:1;stroke:none;stroke-width:0.264583;stroke-opacity:1"
       d="m 57.073975,162.8759 c 43.567085,4.78175 38.254024,14.34526 43.567085,4.78175 5.31306,-9.5635 10.62612,-10.09481 25.50268,-14.87656 14.87657,-4.78175 27.62791,-20.18962 27.62791,-20.18962 0,0 -7.43828,19.12701 -96.697675,30.28443 z"
       id="path3374" />
  </g>
</svg>
