<?xml version="1.0" encoding="UTF-8" standalone="no"?>
<!-- Created with Inkscape (http://www.inkscape.org/) -->

<svg
   width="108.87829mm"
   height="61.17601mm"
   viewBox="0 0 108.87829 61.17601"
   version="1.1"
   id="svg5"
   xml:space="preserve"
   inkscape:version="1.2.2 (b0a8486541, 2022-12-01)"
   sodipodi:docname="fake-company-1.svg"
   xmlns:inkscape="http://www.inkscape.org/namespaces/inkscape"
   xmlns:sodipodi="http://sodipodi.sourceforge.net/DTD/sodipodi-0.dtd"
   xmlns:xlink="http://www.w3.org/1999/xlink"
   xmlns="http://www.w3.org/2000/svg"
   xmlns:svg="http://www.w3.org/2000/svg"><sodipodi:namedview
     id="namedview7"
     pagecolor="#ffffff"
     bordercolor="#000000"
     borderopacity="0.25"
     inkscape:showpageshadow="2"
     inkscape:pageopacity="0.0"
     inkscape:pagecheckerboard="0"
     inkscape:deskcolor="#d1d1d1"
     inkscape:document-units="mm"
     showgrid="false"
     inkscape:zoom="0.8117387"
     inkscape:cx="133.04774"
     inkscape:cy="34.493859"
     inkscape:window-width="1366"
     inkscape:window-height="703"
     inkscape:window-x="0"
     inkscape:window-y="0"
     inkscape:window-maximized="1"
     inkscape:current-layer="text464" /><defs
     id="defs2"><linearGradient
       inkscape:collect="always"
       id="linearGradient1186"><stop
         style="stop-color:#fc9c0e;stop-opacity:1;"
         offset="0"
         id="stop1182" /><stop
         style="stop-color:#ff4422;stop-opacity:1;"
         offset="1"
         id="stop1184" /></linearGradient><rect
       x="110.44469"
       y="287.15619"
       width="363.46344"
       height="156.63065"
       id="rect408" /><rect
       x="148.59831"
       y="315.26938"
       width="493.98898"
       height="98.396179"
       id="rect402" /><linearGradient
       inkscape:collect="always"
       xlink:href="#linearGradient1186"
       id="linearGradient1188"
       x1="183.23399"
       y1="221.90895"
       x2="274.35284"
       y2="221.90895"
       gradientUnits="userSpaceOnUse" /><linearGradient
       inkscape:collect="always"
       xlink:href="#linearGradient1186"
       id="linearGradient1227"
       x1="46.417286"
       y1="118.11606"
       x2="141.01561"
       y2="118.11606"
       gradientUnits="userSpaceOnUse" /></defs><g
     inkscape:label="Layer 1"
     inkscape:groupmode="layer"
     id="layer1"
     transform="translate(-32.137325,-70.014454)"><text
       xml:space="preserve"
       transform="scale(0.26458333)"
       id="text400"
       style="white-space:pre;shape-inside:url(#rect402);display:inline;fill:#000000" /><g
       aria-label="Opulent"
       id="text464"
       style="font-size:25.3479px;fill:url(#linearGradient1227);stroke-width:2.11232"><path
         d="m 63.121552,115.63196 q 0,2.81362 -0.963221,4.9175 -0.937872,2.07852 -2.788269,3.24453 -1.850396,1.166 -4.58797,1.166 -2.813617,0 -4.689361,-1.166 -1.850397,-1.16601 -2.762921,-3.26988 -0.912525,-2.10388 -0.912525,-4.91749 0,-2.78827 0.912525,-4.8668 0.912524,-2.07853 2.762921,-3.24453 1.875744,-1.16601 4.714709,-1.16601 2.712226,0 4.562622,1.16601 1.850397,1.14065 2.788269,3.24453 0.963221,2.07853 0.963221,4.89214 z m -14.296216,0 q 0,3.42197 1.44483,5.39911 1.44483,1.95179 4.511926,1.95179 3.092444,0 4.511927,-1.95179 1.419482,-1.97714 1.419482,-5.39911 0,-3.42196 -1.419482,-5.3484 -1.419483,-1.95179 -4.486579,-1.95179 -3.067096,0 -4.537274,1.95179 -1.44483,1.92644 -1.44483,5.3484 z"
         id="path2925" /><path
         d="m 73.286062,110.86656 q 2.509442,0 4.030316,1.749 1.546222,1.74901 1.546222,5.27237 0,3.47266 -1.546222,5.27236 -1.520874,1.7997 -4.055664,1.7997 -1.571569,0 -2.610833,-0.583 -1.013916,-0.60835 -1.596918,-1.39413 h -0.152088 q 0.0507,0.43091 0.101392,1.08995 0.0507,0.65905 0.0507,1.14066 v 5.57654 h -2.230615 v -19.66997 h 1.825048 l 0.304175,1.85039 h 0.101392 q 0.608349,-0.88717 1.596918,-1.49552 0.988568,-0.60835 2.636181,-0.60835 z m -0.405566,1.87574 q -2.078528,0 -2.940357,1.16601 -0.83648,1.166 -0.887176,3.5487 v 0.43092 q 0,2.50944 0.811133,3.87823 0.83648,1.34343 3.067096,1.34343 1.242047,0 2.027832,-0.68439 0.811132,-0.68439 1.191351,-1.8504 0.405566,-1.19135 0.405566,-2.71222 0,-2.33201 -0.912524,-3.72614 -0.887177,-1.39414 -2.762921,-1.39414 z"
         id="path2927" /><path
         d="m 93.76716,111.12004 v 13.58647 h -1.825049 l -0.329522,-1.7997 h -0.101392 q -0.659046,1.06461 -1.825049,1.57157 -1.166003,0.48161 -2.484094,0.48161 -2.458747,0 -3.700794,-1.166 -1.242047,-1.19135 -1.242047,-3.77684 v -8.89711 h 2.255963 v 8.74502 q 0,3.24453 3.016401,3.24453 2.255963,0 3.117791,-1.26739 0.887177,-1.2674 0.887177,-3.6501 v -7.07206 z"
         id="path2929" /><path
         d="m 100.30692,124.70651 h -2.230618 v -19.2644 h 2.230618 z"
         id="path2931" /><path
         d="m 109.86306,110.86656 q 1.74901,0 2.99105,0.76044 1.2674,0.76043 1.92644,2.15457 0.6844,1.36878 0.6844,3.21918 v 1.34344 h -9.30268 q 0.0507,2.30666 1.166,3.52336 1.14066,1.19135 3.16849,1.19135 1.29274,0 2.28131,-0.22813 1.01392,-0.25348 2.07853,-0.70974 v 1.95178 q -1.03927,0.45627 -2.05318,0.65905 -1.01392,0.22813 -2.40805,0.22813 -1.92644,0 -3.42197,-0.78578 -1.47018,-0.78579 -2.30666,-2.33201 -0.81113,-1.57157 -0.81113,-3.82753 0,-2.23062 0.73509,-3.82754 0.76044,-1.59691 2.10387,-2.45874 1.36879,-0.86183 3.16849,-0.86183 z m -0.0254,1.82505 q -1.59691,0 -2.53479,1.03926 -0.91252,1.01392 -1.08996,2.83897 h 6.91998 q -0.0254,-1.72366 -0.81113,-2.78827 -0.78579,-1.08996 -2.4841,-1.08996 z"
         id="path2933" /><path
         d="m 125.452,110.86656 q 2.4334,0 3.67544,1.19135 1.24205,1.166 1.24205,3.80219 v 8.84641 h -2.20527 v -8.69433 q 0,-3.26988 -3.04175,-3.26988 -2.25596,0 -3.11779,1.2674 -0.86183,1.26739 -0.86183,3.6501 v 7.04671 h -2.23061 v -13.58647 h 1.7997 l 0.32952,1.85039 h 0.12674 q 0.65905,-1.06461 1.82505,-1.57157 1.166,-0.5323 2.45875,-0.5323 z"
         id="path2935" /><path
         d="m 139.11452,123.13494 q 0.50696,0 1.03927,-0.076 0.5323,-0.10139 0.86182,-0.20278 v 1.69831 q -0.35487,0.17743 -1.01391,0.27882 -0.65905,0.12674 -1.2674,0.12674 -1.06461,0 -1.97713,-0.35487 -0.88718,-0.38022 -1.44483,-1.29274 -0.55766,-0.91253 -0.55766,-2.56014 v -7.90854 h -1.92644 v -1.06462 l 1.95179,-0.88717 0.88718,-2.88966 h 1.31809 v 3.11779 h 3.92892 v 1.72366 h -3.92892 v 7.85784 q 0,1.24205 0.583,1.8504 0.60835,0.583 1.54622,0.583 z"
         id="path2937" /></g><g
       style="fill:none"
       id="g603"
       transform="matrix(0.23541437,0,0,0.23541437,5.734579,47.593645)"><path
         d="M 180.15748,150.71092 C 230.16448,182.40502 268.773,254.568 266.184,347.105"
         stroke="#000000"
         stroke-opacity="0.9"
         stroke-width="16"
         stroke-linecap="round"
         stroke-linejoin="round"
         id="path582"
         style="stroke:url(#linearGradient1188)"
         sodipodi:nodetypes="cc" /><path
         d="m 177.38835,147.94179 c 21.967,-17.3271 55.713,-25.0849 75.118,-0.377"
         stroke="#000000"
         stroke-opacity="0.9"
         stroke-width="16"
         stroke-linecap="round"
         stroke-linejoin="round"
         id="path558"
         style="stroke:#4dbf51;stroke-opacity:1" /><path
         d="m 170.23735,151.51889 c -14.601,6.558 -32.049,28.518 -22.128,44.713"
         stroke="#000000"
         stroke-opacity="0.9"
         stroke-width="16"
         stroke-linecap="round"
         stroke-linejoin="round"
         id="path560"
         style="stroke:#4dbf51;stroke-opacity:1" /><path
         d="m 152.34535,167.61589 c 0.328,7.615 3.634,11.208 8.943,16.096"
         stroke="#000000"
         stroke-opacity="0.9"
         stroke-width="16"
         stroke-linecap="round"
         stroke-linejoin="round"
         id="path562"
         style="stroke:#4dbf51;stroke-opacity:1" /><path
         d="m 169.39735,155.09589 c 0.776,2.928 1.134,5.994 1.678,8.943"
         stroke="#000000"
         stroke-opacity="0.9"
         stroke-width="16"
         stroke-linecap="round"
         stroke-linejoin="round"
         id="path564"
         style="stroke:#4dbf51;stroke-opacity:1" /><path
         d="m 198.84235,135.42229 c 8.942,1.3917 9.736,6.1406 12.519,12.5196"
         stroke="#000000"
         stroke-opacity="0.9"
         stroke-width="16"
         stroke-linecap="round"
         stroke-linejoin="round"
         id="path566"
         style="stroke:#4dbf51;stroke-opacity:1" /><path
         d="m 222.09635,133.63339 c 10.404,2.8257 11.439,8.6366 12.52,12.5197"
         stroke="#000000"
         stroke-opacity="0.9"
         stroke-width="16"
         stroke-linecap="round"
         stroke-linejoin="round"
         id="path568"
         style="stroke:#4dbf51;stroke-opacity:1" /><path
         d="m 214.94835,103.60189 c -25.393,-3.764495 -44.198,21.6751 -40.722,44.3399"
         stroke="#000000"
         stroke-opacity="0.9"
         stroke-width="16"
         stroke-linecap="round"
         stroke-linejoin="round"
         id="path570"
         style="stroke:#4dbf51;stroke-opacity:1" /><path
         d="m 189.90735,110.38319 c 5.321,0.2447 8.683,3.5394 12.52,7.1541"
         stroke="#000000"
         stroke-opacity="0.9"
         stroke-width="16"
         stroke-linecap="round"
         stroke-linejoin="round"
         id="path572"
         style="stroke:#4dbf51;stroke-opacity:1" /><path
         d="m 180.96535,125.64989 c 2.157,-1.8673 4.821,-1.2949 7.154,-1.9173"
         stroke="#000000"
         stroke-opacity="0.9"
         stroke-width="16"
         stroke-linecap="round"
         stroke-linejoin="round"
         id="path574"
         style="stroke:#4dbf51;stroke-opacity:1" /><path
         d="m 170.23235,138.99899 c -9.06,-22.9291 -35.498,-23.7149 -50.078,-13.0697"
         stroke="#000000"
         stroke-opacity="0.9"
         stroke-width="16"
         stroke-linecap="round"
         stroke-linejoin="round"
         id="path576"
         style="stroke:#4dbf51;stroke-opacity:1" /><path
         d="m 145.19235,122.90249 c -5.874,2.2165 -8.934,7.7128 -12.519,12.5196"
         stroke="#000000"
         stroke-opacity="0.9"
         stroke-width="16"
         stroke-linecap="round"
         stroke-linejoin="round"
         id="path578"
         style="stroke:#4dbf51;stroke-opacity:1" /><path
         d="m 159.49935,126.47959 c -4.226,0.3856 -5.019,5.7467 -7.154,8.9426"
         stroke="#000000"
         stroke-opacity="0.9"
         stroke-width="16"
         stroke-linecap="round"
         stroke-linejoin="round"
         id="path580"
         style="stroke:#4dbf51;stroke-opacity:1" /></g></g></svg>
