<?xml version="1.0" encoding="UTF-8" standalone="no"?>
<!-- Created with Inkscape (http://www.inkscape.org/) -->

<svg
   width="170.45026mm"
   height="60.005009mm"
   viewBox="0 0 170.45026 60.005009"
   version="1.1"
   id="svg5"
   inkscape:version="1.2.2 (b0a8486541, 2022-12-01)"
   sodipodi:docname="fake-company-3.svg"
   xmlns:inkscape="http://www.inkscape.org/namespaces/inkscape"
   xmlns:sodipodi="http://sodipodi.sourceforge.net/DTD/sodipodi-0.dtd"
   xmlns="http://www.w3.org/2000/svg"
   xmlns:svg="http://www.w3.org/2000/svg">
  <sodipodi:namedview
     id="namedview7"
     pagecolor="#ffffff"
     bordercolor="#000000"
     borderopacity="0.25"
     inkscape:showpageshadow="2"
     inkscape:pageopacity="0.0"
     inkscape:pagecheckerboard="0"
     inkscape:deskcolor="#d1d1d1"
     inkscape:document-units="mm"
     showgrid="false"
     inkscape:zoom="0.49798681"
     inkscape:cx="226.91364"
     inkscape:cy="174.70342"
     inkscape:window-width="1366"
     inkscape:window-height="703"
     inkscape:window-x="0"
     inkscape:window-y="0"
     inkscape:window-maximized="1"
     inkscape:current-layer="g1129" />
  <defs
     id="defs2">
    <rect
       x="303.22089"
       y="385.55237"
       width="337.35834"
       height="230.92981"
       id="rect1235" />
    <rect
       x="257.03491"
       y="447.80301"
       width="106.42852"
       height="108.43661"
       id="rect1064" />
  </defs>
  <g
     inkscape:label="Layer 1"
     inkscape:groupmode="layer"
     id="layer1"
     transform="translate(-19.727106,-102.77146)">
    <text
       xml:space="preserve"
       transform="scale(0.26458333)"
       id="text1062"
       style="white-space:pre;shape-inside:url(#rect1064);fill:#f5d977;fill-opacity:1" />
    <g
       id="g1129"
       transform="translate(-21.783542,7.9695886)">
      <g
         id="g1008"
         transform="translate(-8.5008945,1.0626118)">
        <g
           id="g1002"
           transform="rotate(60,65.864264,161.6444)">
          <circle
             style="fill:#f0c737;fill-opacity:1;stroke-width:0.264583"
             id="path234"
             cx="40.113594"
             cy="130.43559"
             r="30" />
          <path
             id="path234-3"
             style="fill:#cb9f07;fill-opacity:1;stroke-width:0.264583"
             d="m 70.113594,130.43559 c 0,16.56854 -13.43146,30 -30,30 -16.568542,0 -29.999998,-13.43146 -29.999998,-30 1e-6,-16.56854 12.368845,-14.06082 28.937388,-14.06082 16.56854,0 31.06261,-2.50772 31.06261,14.06082 z"
             sodipodi:nodetypes="sssss" />
        </g>
        <circle
           style="fill:#f5d977;fill-opacity:1;stroke-width:0.211666"
           id="path234-6"
           cx="80.016548"
           cy="123.73926"
           r="24" />
      </g>
      <g
         aria-label="VG"
         id="text1120"
         style="font-size:25.8626px;fill:#7e4b09;stroke-width:2.15521">
        <path
           d="m 70.814855,115.57143 -6.594963,18.46589 h -2.327634 l -6.594963,-18.46589 h 2.431084 l 4.163879,11.84507 q 0.413801,1.13795 0.69829,2.14659 0.284489,0.98278 0.465527,1.88797 0.181038,-0.90519 0.465527,-1.91383 0.284488,-1.00864 0.69829,-2.17246 l 4.138016,-11.79334 z"
           id="path1239" />
        <path
           d="m 81.340943,124.28712 h 6.388063 v 9.05191 q -1.500031,0.49139 -3.025925,0.72416 -1.525893,0.23276 -3.465588,0.23276 -2.870749,0 -4.836306,-1.13796 -1.965558,-1.16381 -3.000062,-3.28455 -1.008641,-2.14659 -1.008641,-5.06907 0,-2.89661 1.137954,-5.01734 1.137955,-2.12073 3.258688,-3.28455 2.146596,-1.18968 5.17252,-1.18968 1.551756,0 2.922474,0.28449 1.39658,0.28449 2.58626,0.80174 l -0.879329,2.01728 q -0.982779,-0.43966 -2.224183,-0.75001 -1.215543,-0.31035 -2.534535,-0.31035 -3.310413,0 -5.17252,1.99142 -1.836245,1.99142 -1.836245,5.457 0,2.19833 0.69829,3.90526 0.724153,1.68107 2.250047,2.63798 1.525893,0.93106 4.008703,0.93106 1.215542,0 2.069008,-0.12932 0.853465,-0.12931 1.551756,-0.31035 v -5.48287 h -4.060429 z"
           id="path1241" />
      </g>
      <g
         aria-label="Veronic
Gardens"
         id="text1246"
         style="font-size:24.1733px;fill:#7e4b09;stroke-width:2.01444">
        <path
           d="m 131.39128,101.22333 -6.16419,17.25973 h -2.1756 l -6.16419,-17.25973 h 2.27229 l 3.8919,11.07137 q 0.38677,1.06362 0.65268,2.00638 0.26591,0.91859 0.43512,1.76465 0.16921,-0.84606 0.43512,-1.78882 0.2659,-0.94276 0.65268,-2.03056 l 3.86772,-11.02302 z"
           id="path1250" />
        <path
           d="m 138.44989,105.28444 q 1.66796,0 2.85245,0.7252 1.20867,0.7252 1.83717,2.05473 0.65268,1.30536 0.65268,3.07001 v 1.28118 h -8.8716 q 0.0483,2.19977 1.11197,3.36009 1.0878,1.13615 3.02166,1.13615 1.23284,0 2.1756,-0.21756 0.96693,-0.24173 1.98221,-0.67685 v 1.86134 q -0.9911,0.43512 -1.95804,0.62851 -0.96693,0.21756 -2.29646,0.21756 -1.83717,0 -3.26339,-0.74938 -1.40206,-0.74937 -2.19978,-2.22394 -0.77354,-1.49874 -0.77354,-3.65017 0,-2.12725 0.70102,-3.65017 0.7252,-1.52291 2.00639,-2.34481 1.30536,-0.82189 3.02166,-0.82189 z m -0.0242,1.74048 q -1.52292,0 -2.41733,0.9911 -0.87024,0.96694 -1.03945,2.70741 h 6.59931 q -0.0242,-1.64378 -0.77355,-2.65906 -0.74937,-1.03945 -2.36898,-1.03945 z"
           id="path1252" />
        <path
           d="m 153.12306,105.28444 q 0.3626,0 0.77355,0.0483 0.43512,0.0242 0.74937,0.0967 l -0.2659,1.95804 q -0.31426,-0.0725 -0.70103,-0.12087 -0.3626,-0.0483 -0.70103,-0.0483 -0.9911,0 -1.86134,0.55598 -0.87024,0.53181 -1.40205,1.52292 -0.50764,0.96693 -0.50764,2.27229 v 6.91356 h -2.12725 v -12.95689 h 1.74048 l 0.24173,2.36899 h 0.0967 q 0.62851,-1.06363 1.61961,-1.83717 0.99111,-0.77355 2.34481,-0.77355 z"
           id="path1254" />
        <path
           d="m 168.32807,111.98045 q 0,3.21504 -1.64378,4.97969 -1.61961,1.76466 -4.39954,1.76466 -1.71631,0 -3.07001,-0.77355 -1.32953,-0.79772 -2.10308,-2.29646 -0.77355,-1.52292 -0.77355,-3.67434 0,-3.21505 1.61962,-4.95553 1.61961,-1.74048 4.39954,-1.74048 1.76465,0 3.09418,0.79772 1.3537,0.77355 2.10308,2.27229 0.77354,1.47457 0.77354,3.626 z m -9.79019,0 q 0,2.29646 0.89442,3.65016 0.91858,1.32953 2.90079,1.32953 1.95804,0 2.87663,-1.32953 0.91858,-1.3537 0.91858,-3.65016 0,-2.29647 -0.91858,-3.60183 -0.91859,-1.30535 -2.9008,-1.30535 -1.98221,0 -2.87662,1.30535 -0.89442,1.30536 -0.89442,3.60183 z"
           id="path1256" />
        <path
           d="m 177.92486,105.28444 q 2.32064,0 3.50513,1.13615 1.18449,1.11197 1.18449,3.62599 v 8.43648 h -2.10308 v -8.29144 q 0,-3.11835 -2.90079,-3.11835 -2.15143,0 -2.97332,1.20866 -0.82189,1.20867 -0.82189,3.48096 v 6.72017 h -2.12725 v -12.95689 h 1.7163 l 0.31426,1.76465 h 0.12086 q 0.62851,-1.01527 1.74048,-1.49874 1.11197,-0.50764 2.34481,-0.50764 z"
           id="path1258" />
        <path
           d="m 187.71505,100.66734 q 0.48346,0 0.84606,0.33843 0.38677,0.31425 0.38677,1.01528 0,0.67685 -0.38677,1.01527 -0.3626,0.33843 -0.84606,0.33843 -0.53182,0 -0.89442,-0.33843 -0.3626,-0.33842 -0.3626,-1.01527 0,-0.70103 0.3626,-1.01528 0.3626,-0.33843 0.89442,-0.33843 z m 1.03945,4.85883 v 12.95689 h -2.12725 v -12.95689 z"
           id="path1260" />
        <path
           d="m 198.06121,118.7248 q -1.7163,0 -3.07001,-0.70103 -1.32953,-0.70103 -2.10308,-2.1756 -0.74937,-1.47457 -0.74937,-3.77103 0,-2.39316 0.79772,-3.8919 0.79772,-1.49875 2.15142,-2.19977 1.37788,-0.70103 3.11836,-0.70103 0.9911,0 1.90969,0.21756 0.91859,0.19339 1.49874,0.48347 l -0.65267,1.76465 q -0.58016,-0.21756 -1.35371,-0.41095 -0.77355,-0.19338 -1.4504,-0.19338 -3.81938,0 -3.81938,4.90718 0,2.34481 0.91859,3.60182 0.94276,1.23283 2.77993,1.23283 1.06362,0 1.86134,-0.21755 0.82189,-0.21756 1.49874,-0.53182 v 1.88552 q -0.65267,0.33843 -1.45039,0.50764 -0.77355,0.19339 -1.88552,0.19339 z"
           id="path1262" />
        <path
           d="m 126.72583,139.58635 h 5.97081 v 8.46066 q -1.40205,0.45929 -2.82828,0.67685 -1.42622,0.21756 -3.23922,0.21756 -2.68324,0 -4.52041,-1.06362 -1.83717,-1.0878 -2.8041,-3.07001 -0.94276,-2.00639 -0.94276,-4.73797 0,-2.70741 1.06363,-4.68962 1.06362,-1.98221 3.04583,-3.07001 2.00638,-1.11197 4.83466,-1.11197 1.4504,0 2.73158,0.2659 1.30536,0.26591 2.41733,0.74938 l -0.82189,1.88551 q -0.91858,-0.41094 -2.0789,-0.70102 -1.13615,-0.29008 -2.36899,-0.29008 -3.09418,0 -4.83466,1.86134 -1.7163,1.86135 -1.7163,5.10057 0,2.05473 0.65268,3.65017 0.67685,1.57126 2.10308,2.46567 1.42622,0.87024 3.74686,0.87024 1.13614,0 1.93386,-0.12086 0.79772,-0.12087 1.4504,-0.29008 v -5.12474 h -3.79521 z"
           id="path1264" />
        <path
           d="m 141.44739,135.52524 q 2.36898,0 3.50512,1.03945 1.13615,1.03945 1.13615,3.31174 v 8.82326 h -1.54709 l -0.41095,-1.83717 h -0.0967 q -0.84607,1.06362 -1.78883,1.57126 -0.91858,0.50764 -2.56237,0.50764 -1.76465,0 -2.92496,-0.91858 -1.16032,-0.94276 -1.16032,-2.92497 0,-1.93387 1.52292,-2.97332 1.52291,-1.06363 4.68962,-1.16032 l 2.19977,-0.0725 v -0.77354 q 0,-1.61962 -0.70103,-2.24812 -0.70103,-0.62851 -1.98221,-0.62851 -1.01528,0 -1.93386,0.31426 -0.91859,0.29008 -1.71631,0.67685 l -0.65268,-1.59544 q 0.84607,-0.45929 2.00639,-0.77354 1.16031,-0.33843 2.41733,-0.33843 z m 0.6285,6.91356 q -2.41733,0.0967 -3.36009,0.77355 -0.91858,0.67685 -0.91858,1.90969 0,1.0878 0.65268,1.59544 0.67685,0.50764 1.7163,0.50764 1.64379,0 2.73158,-0.89442 1.0878,-0.91858 1.0878,-2.8041 v -1.16032 z"
           id="path1266" />
        <path
           d="m 156.14477,135.50107 q 0.3626,0 0.77355,0.0483 0.43512,0.0242 0.74937,0.0967 l -0.26591,1.95803 q -0.31425,-0.0725 -0.70102,-0.12086 -0.3626,-0.0483 -0.70103,-0.0483 -0.9911,0 -1.86134,0.55599 -0.87024,0.53181 -1.40205,1.52291 -0.50764,0.96694 -0.50764,2.27229 v 6.91357 h -2.12725 v -12.9569 h 1.74047 l 0.24174,2.36898 h 0.0967 q 0.62851,-1.06362 1.61961,-1.83717 0.99111,-0.77354 2.34481,-0.77354 z"
           id="path1268" />
        <path
           d="m 164.67795,148.94142 q -2.41733,0 -3.86773,-1.66796 -1.4504,-1.69213 -1.4504,-5.02804 0,-3.33592 1.4504,-5.02805 1.47457,-1.7163 3.8919,-1.7163 1.49875,0 2.44151,0.55598 0.96693,0.55599 1.57126,1.35371 h 0.14504 q -0.0242,-0.31426 -0.0967,-0.91859 -0.0483,-0.6285 -0.0483,-0.9911 v -5.17309 h 2.12725 v 18.37171 h -1.7163 l -0.31426,-1.74048 h -0.0967 q -0.58016,0.82189 -1.54709,1.40205 -0.96693,0.58016 -2.48985,0.58016 z m 0.33843,-1.76465 q 2.05473,0 2.87662,-1.11197 0.84606,-1.13615 0.84606,-3.40844 v -0.38677 q 0,-2.41733 -0.79771,-3.69852 -0.79772,-1.30535 -2.94915,-1.30535 -1.7163,0 -2.58654,1.37787 -0.84607,1.35371 -0.84607,3.65017 0,2.32064 0.84607,3.60182 0.87024,1.28119 2.61072,1.28119 z"
           id="path1270" />
        <path
           d="m 179.95547,135.50107 q 1.66796,0 2.85245,0.72519 1.20866,0.7252 1.83717,2.05474 0.65268,1.30535 0.65268,3.07 v 1.28119 h -8.8716 q 0.0483,2.19977 1.11197,3.36009 1.0878,1.13614 3.02166,1.13614 1.23284,0 2.1756,-0.21756 0.96693,-0.24173 1.98221,-0.67685 v 1.86134 q -0.99111,0.43512 -1.95804,0.62851 -0.96693,0.21756 -2.29646,0.21756 -1.83717,0 -3.2634,-0.74937 -1.40205,-0.74937 -2.19977,-2.22395 -0.77354,-1.49874 -0.77354,-3.65016 0,-2.12725 0.70102,-3.65017 0.7252,-1.52292 2.00639,-2.34481 1.30536,-0.82189 3.02166,-0.82189 z m -0.0242,1.74047 q -1.52292,0 -2.41733,0.99111 -0.87024,0.96693 -1.03946,2.70741 h 6.59932 q -0.0242,-1.64379 -0.77355,-2.65906 -0.74937,-1.03946 -2.36898,-1.03946 z"
           id="path1272" />
        <path
           d="m 194.82203,135.50107 q 2.32063,0 3.50513,1.13614 1.18449,1.11197 1.18449,3.626 v 8.43648 h -2.10308 v -8.29144 q 0,-3.11836 -2.90079,-3.11836 -2.15143,0 -2.97332,1.20866 -0.82189,1.20867 -0.82189,3.48096 v 6.72018 h -2.12725 V 135.7428 h 1.7163 l 0.31425,1.76465 h 0.12087 q 0.62851,-1.01528 1.74048,-1.49874 1.11197,-0.50764 2.34481,-0.50764 z"
           id="path1274" />
        <path
           d="m 211.9609,145.12204 q 0,1.88552 -1.40205,2.85245 -1.40205,0.96693 -3.77104,0.96693 -1.3537,0 -2.34481,-0.21756 -0.96693,-0.21756 -1.7163,-0.60433 v -1.93387 q 0.77355,0.38678 1.86134,0.7252 1.11198,0.31426 2.24812,0.31426 1.61961,0 2.34481,-0.50764 0.7252,-0.53182 0.7252,-1.40205 0,-0.48347 -0.26591,-0.87024 -0.2659,-0.38678 -0.96693,-0.77355 -0.67685,-0.38677 -1.95804,-0.87024 -1.25701,-0.48346 -2.15142,-0.96693 -0.89441,-0.48347 -1.37788,-1.16032 -0.48346,-0.67685 -0.48346,-1.74048 0,-1.64378 1.32953,-2.53819 1.3537,-0.89441 3.5293,-0.89441 1.18449,0 2.19977,0.24173 1.03945,0.21756 1.93386,0.6285 l -0.72519,1.69214 q -0.8219,-0.33843 -1.71631,-0.58016 -0.89441,-0.24174 -1.83717,-0.24174 -1.30536,0 -2.00638,0.43512 -0.67686,0.41095 -0.67686,1.13615 0,0.53181 0.31426,0.91858 0.31425,0.3626 1.03945,0.7252 0.74937,0.33843 1.98221,0.82189 1.23284,0.4593 2.10308,0.94276 0.87024,0.48347 1.32953,1.18449 0.45929,0.67686 0.45929,1.71631 z"
           id="path1276" />
      </g>
    </g>
    <text
       xml:space="preserve"
       transform="scale(0.26458333)"
       id="text1233"
       style="white-space:pre;shape-inside:url(#rect1235);fill:#7e4b09;fill-opacity:1" />
  </g>
</svg>
